# Blender v2.79 (sub 0) OBJ File: ''
# www.blender.org
mtllib Hammerfall Dome2.mtl
o Cube
v 1.000000 0.026720 -1.000000
v 1.000000 0.026720 1.000000
v -1.000000 0.026720 1.000000
v -1.000000 0.026720 -1.000000
v 0.597287 1.000000 -0.597286
v 0.597286 1.000000 0.597287
v -0.597287 1.000000 0.597286
v -0.597286 1.000000 -0.597286
v 0.340115 1.348627 -0.340115
v 0.340115 1.348627 0.340115
v -0.340115 1.348627 0.340115
v -0.340115 1.348627 -0.340115
v 0.074870 1.624568 -0.074870
v 0.074870 1.624568 0.074870
v -0.074870 1.624568 0.074870
v -0.074870 1.624568 -0.074870
v 0.060737 1.698307 -0.060737
v 0.060737 1.698307 0.060737
v -0.060737 1.698307 0.060737
v -0.060737 1.698307 -0.060737
v 0.039182 1.771021 -0.039182
v 0.039182 1.771021 0.039182
v -0.039182 1.771021 0.039182
v -0.039182 1.771021 -0.039182
v 0.086850 2.086576 -0.086850
v 0.086850 2.086576 0.086850
v -0.086850 2.086576 0.086850
v -0.086850 2.086576 -0.086850
v 0.060125 2.196358 -0.060125
v 0.060125 2.196358 0.060125
v -0.060125 2.196358 0.060125
v -0.060125 2.196358 -0.060125
v 0.029765 2.221643 -0.029765
v 0.029765 2.221643 0.029766
v -0.029765 2.221643 0.029766
v -0.029765 2.221643 -0.029765
v 0.016888 2.271659 -0.016888
v 0.016888 2.271659 0.016888
v -0.016888 2.271659 0.016888
v -0.016888 2.271659 -0.016888
vn 0.0000 -1.0000 -0.0000
vn -0.0000 0.5936 0.8047
vn 0.9240 0.3823 0.0000
vn -0.0000 0.3823 0.9240
vn -0.9240 0.3823 -0.0000
vn 0.0000 0.3823 -0.9240
vn -0.0000 0.6930 0.7209
vn 0.8047 0.5936 0.0000
vn -0.8047 0.5936 -0.0000
vn 0.0000 0.5936 -0.8047
vn -0.0000 0.1882 0.9821
vn 0.7209 0.6930 0.0000
vn -0.7209 0.6930 -0.0000
vn 0.0000 0.6930 -0.7209
vn -0.9588 0.2842 -0.0000
vn 0.9821 0.1882 0.0000
vn -0.9821 0.1882 -0.0000
vn 0.0000 0.1882 -0.9821
vn -0.0000 -0.1494 0.9888
vn 0.0000 0.2842 -0.9588
vn -0.0000 0.2842 0.9588
vn 0.9588 0.2842 0.0000
vn -0.0000 0.2365 0.9716
vn 0.9888 -0.1494 0.0000
vn -0.9888 -0.1494 -0.0000
vn 0.0000 -0.1494 -0.9888
vn -0.6400 0.7684 -0.0000
vn 0.9716 0.2365 0.0000
vn -0.9716 0.2365 -0.0000
vn 0.0000 0.2365 -0.9716
vn -0.0000 0.2493 0.9684
vn 0.0000 0.7684 -0.6400
vn -0.0000 0.7684 0.6400
vn 0.6400 0.7684 0.0000
vn 0.0000 1.0000 0.0000
vn 0.9684 0.2493 0.0000
vn -0.9684 0.2493 -0.0000
vn 0.0000 0.2493 -0.9684
usemtl Material
s off
f 1//1 2//1 3//1 4//1
f 7//2 6//2 10//2 11//2
f 1//3 5//3 6//3 2//3
f 2//4 6//4 7//4 3//4
f 3//5 7//5 8//5 4//5
f 5//6 1//6 4//6 8//6
f 11//7 10//7 14//7 15//7
f 6//8 5//8 9//8 10//8
f 8//9 7//9 11//9 12//9
f 5//10 8//10 12//10 9//10
f 15//11 14//11 18//11 19//11
f 10//12 9//12 13//12 14//12
f 12//13 11//13 15//13 16//13
f 9//14 12//14 16//14 13//14
f 20//15 19//15 23//15 24//15
f 14//16 13//16 17//16 18//16
f 16//17 15//17 19//17 20//17
f 13//18 16//18 20//18 17//18
f 23//19 22//19 26//19 27//19
f 17//20 20//20 24//20 21//20
f 19//21 18//21 22//21 23//21
f 18//22 17//22 21//22 22//22
f 27//23 26//23 30//23 31//23
f 22//24 21//24 25//24 26//24
f 24//25 23//25 27//25 28//25
f 21//26 24//26 28//26 25//26
f 32//27 31//27 35//27 36//27
f 26//28 25//28 29//28 30//28
f 28//29 27//29 31//29 32//29
f 25//30 28//30 32//30 29//30
f 35//31 34//31 38//31 39//31
f 29//32 32//32 36//32 33//32
f 31//33 30//33 34//33 35//33
f 30//34 29//34 33//34 34//34
f 37//35 40//35 39//35 38//35
f 34//36 33//36 37//36 38//36
f 36//37 35//37 39//37 40//37
f 33//38 36//38 40//38 37//38
