# Blender v2.79 (sub 0) OBJ File: ''
# www.blender.org
mtllib Hammerfall Dome4.mtl
o Cube_Cube.001
v 0.792542 2.071793 -0.487788
v 0.792542 2.071793 0.487788
v 0.487788 2.071793 0.792542
v -0.792542 2.071793 -0.487788
v -0.487788 2.071793 -0.792542
v -0.487788 2.071793 0.792542
v -0.792542 2.071793 0.487788
v 0.329533 2.558504 -0.202819
v -1.000000 -0.114319 0.000000
v 0.000000 2.071793 0.792542
v -1.000000 1.885681 0.000000
v 0.792542 2.071793 0.000000
v 0.000000 -0.114319 -1.000000
v 0.000000 1.885681 -1.000000
v 0.000000 2.071793 -0.792542
v 1.000000 -0.114319 0.000000
v 1.000000 1.885681 0.000000
v -0.792542 2.071793 0.000000
v 0.000000 -0.114319 1.000000
v 0.000000 1.885681 1.000000
v 0.494742 2.443230 -0.304500
v 0.000000 -0.114319 0.000000
v -0.000000 1.563081 0.689389
v 0.689389 1.563081 0.000000
v -0.000000 1.563081 -0.689389
v -0.689389 1.563081 0.000000
v -0.615473 -0.114319 1.000000
v -1.000000 -0.114319 0.615473
v -1.000000 1.885681 0.615473
v -0.615473 1.885681 1.000000
v -1.000000 -0.114319 -0.615473
v -0.615473 -0.114319 -1.000000
v -0.615473 1.885681 -1.000000
v -1.000000 1.885681 -0.615473
v 1.000000 -0.114319 0.615473
v 0.615473 -0.114319 1.000000
v 0.615473 1.885681 1.000000
v 1.000000 1.885681 0.615473
v 0.615473 -0.114319 -1.000000
v 1.000000 -0.114319 -0.615473
v 1.000000 1.885681 -0.615473
v 0.615473 1.885681 -1.000000
v -0.689389 1.563081 0.424300
v -0.424300 1.563081 0.689389
v -0.689389 1.563081 -0.424300
v -0.424300 1.563081 -0.689389
v 0.424300 1.563081 -0.689389
v 0.689389 1.563081 -0.424300
v 0.689389 1.563081 0.424300
v 0.424300 1.563081 0.689389
v 0.487788 2.071793 -0.792542
v 0.494742 2.443230 0.304500
v 0.304500 2.443230 0.494742
v -0.494742 2.443230 -0.304500
v -0.304500 2.443230 -0.494742
v -0.304500 2.443230 0.494742
v -0.494742 2.443230 0.304500
v 0.139763 2.691710 -0.086020
v -0.000000 2.443230 0.494742
v 0.494742 2.443230 0.000000
v -0.000000 2.443230 -0.494742
v -0.494742 2.443230 0.000000
v 0.304500 2.443230 -0.494742
v 0.329533 2.558504 0.202819
v 0.202819 2.558504 0.329533
v -0.329533 2.558504 -0.202819
v -0.202819 2.558504 -0.329533
v -0.202819 2.558504 0.329533
v -0.329533 2.558504 0.202819
v -0.000000 2.558504 0.329533
v 0.329533 2.558504 0.000000
v -0.000000 2.558504 -0.329533
v -0.329533 2.558504 0.000000
v 0.202819 2.558504 -0.329533
v 0.139763 2.691710 0.086020
v 0.086020 2.691710 0.139763
v -0.139763 2.691710 -0.086020
v -0.086020 2.691710 -0.139763
v -0.086020 2.691710 0.139763
v -0.139763 2.691710 0.086020
v 0.000000 2.691710 -0.000000
v 0.000000 2.691710 0.139763
v 0.139763 2.691710 -0.000000
v 0.000000 2.691710 -0.139763
v -0.139763 2.691710 -0.000000
v 0.086020 2.691710 -0.139763
vn 0.0000 -0.6936 -0.7204
vn 0.7204 -0.6936 0.0000
vn 0.0000 -0.6936 0.7204
vn 0.4367 0.7865 0.4367
vn 0.0000 0.7444 0.6678
vn -0.9833 0.1821 0.0000
vn -0.7204 -0.6936 0.0000
vn 0.0000 0.7444 -0.6678
vn 0.0000 -1.0000 0.0000
vn 0.0000 0.1821 -0.9833
vn 0.0000 0.1821 0.9833
vn 0.5215 0.6754 0.5215
vn 0.9833 0.1821 0.0000
vn -0.4757 -0.7399 0.4757
vn -0.6918 0.2069 -0.6918
vn 0.6918 0.2069 -0.6918
vn 0.6918 0.2069 0.6918
vn -0.6918 0.2069 0.6918
vn -0.4757 -0.7399 -0.4757
vn 0.4757 -0.7399 -0.4757
vn 0.4757 -0.7399 0.4757
vn 0.0000 0.6255 0.7802
vn 0.5215 0.6754 -0.5215
vn 0.0000 0.6255 -0.7802
vn -0.6678 0.7444 0.0000
vn 0.4367 0.7865 -0.4367
vn -0.4367 0.7865 0.4367
vn -0.4367 0.7865 -0.4367
vn 0.6678 0.7444 0.0000
vn -0.5722 0.8201 0.0000
vn 0.0000 0.8201 -0.5722
vn -0.3686 0.8534 0.3686
vn 0.5722 0.8201 0.0000
vn -0.7802 0.6255 0.0000
vn 0.7802 0.6255 0.0000
vn -0.5215 0.6754 0.5215
vn -0.5215 0.6754 -0.5215
vn -0.5745 0.8185 0.0000
vn -0.3702 0.8520 0.3702
vn 0.5745 0.8185 0.0000
vn 0.0000 0.8201 0.5722
vn 0.3686 0.8534 0.3686
vn 0.3686 0.8534 -0.3686
vn -0.3686 0.8534 -0.3686
vn 0.0000 1.0000 -0.0000
vn 0.0000 0.8185 0.5745
vn 0.3702 0.8520 0.3702
vn 0.3702 0.8520 -0.3702
vn 0.0000 0.8185 -0.5745
vn -0.3702 0.8520 -0.3702
usemtl None
s off
f 46//1 33//1 14//1 25//1
f 48//2 41//2 17//2 24//2
f 50//3 37//3 20//3 23//3
f 37//4 38//4 2//4 3//4
f 20//5 37//5 3//5 10//5
f 9//6 26//6 45//6 31//6
f 24//2 17//2 38//2 49//2
f 25//1 14//1 42//1 47//1
f 26//7 11//7 34//7 45//7
f 43//7 29//7 11//7 26//7
f 14//8 33//8 5//8 15//8
f 42//8 14//8 15//8 51//8
f 9//9 22//9 19//9 27//9 28//9
f 22//9 16//9 35//9 36//9 19//9
f 13//10 25//10 47//10 39//10
f 36//11 50//11 23//11 19//11
f 13//9 39//9 40//9 16//9 22//9
f 3//12 2//12 52//12 53//12
f 40//13 48//13 24//13 16//13
f 31//9 32//9 13//9 22//9 9//9
f 16//13 24//13 49//13 35//13
f 32//10 46//10 25//10 13//10
f 19//11 23//11 44//11 27//11
f 23//3 20//3 30//3 44//3
f 44//14 30//14 29//14 43//14
f 46//15 32//15 31//15 45//15
f 48//16 40//16 39//16 47//16
f 50//17 36//17 35//17 49//17
f 27//18 44//18 43//18 28//18
f 33//19 46//19 45//19 34//19
f 41//20 48//20 47//20 42//20
f 37//21 50//21 49//21 38//21
f 28//6 43//6 26//6 9//6
f 6//22 10//22 59//22 56//22
f 1//23 51//23 63//23 21//23
f 51//24 15//24 61//24 63//24
f 11//25 29//25 7//25 18//25
f 41//26 42//26 51//26 1//26
f 34//25 11//25 18//25 4//25
f 29//27 30//27 6//27 7//27
f 33//28 34//28 4//28 5//28
f 17//29 41//29 1//29 12//29
f 30//5 20//5 10//5 6//5
f 38//29 17//29 12//29 2//29
f 54//30 62//30 73//30 66//30
f 61//31 55//31 67//31 72//31
f 57//32 56//32 68//32 69//32
f 52//33 60//33 71//33 64//33
f 15//24 5//24 55//24 61//24
f 4//34 18//34 62//34 54//34
f 10//22 3//22 53//22 59//22
f 12//35 1//35 21//35 60//35
f 18//34 7//34 57//34 62//34
f 7//36 6//36 56//36 57//36
f 5//37 4//37 54//37 55//37
f 2//35 12//35 60//35 52//35
f 66//38 73//38 85//38 77//38
f 69//39 68//39 79//39 80//39
f 73//38 69//38 80//38 85//38
f 71//40 8//40 58//40 83//40
f 56//41 59//41 70//41 68//41
f 53//42 52//42 64//42 65//42
f 21//43 63//43 74//43 8//43
f 62//30 57//30 69//30 73//30
f 63//31 61//31 72//31 74//31
f 55//44 54//44 66//44 67//44
f 59//41 53//41 65//41 70//41
f 60//33 21//33 8//33 71//33
f 81//45 85//45 80//45 79//45 82//45
f 83//45 81//45 82//45 76//45 75//45
f 84//45 78//45 77//45 85//45 81//45
f 58//45 86//45 84//45 81//45 83//45
f 68//46 70//46 82//46 79//46
f 65//47 64//47 75//47 76//47
f 8//48 74//48 86//48 58//48
f 74//49 72//49 84//49 86//49
f 70//46 65//46 76//46 82//46
f 64//40 71//40 83//40 75//40
f 67//50 66//50 77//50 78//50
f 72//49 67//49 78//49 84//49
